# xmcd CD database file
#
# Track frame offsets:
#	150
#	19570
#	43745
#	66181
#	88700
#	102924
#	126565
#	146993
#	172026
#	185686
#	206175
#	225605
#	247083
#	265077
#	284332
#	299619
#	313160
#
# Disc length: 4335 seconds
#
# Revision: 0
# Processed by: cddbd v1.5.2PL0 Copyright (c) Steve Scherf et al.
# Submitted via: CDex 1.51
#
DISCID=1610ed11
DTITLE=Eddie Taylor - Live In Japan 1977 Deluxe Edition CD 2
DYEAR=1977
DGENRE=Blues
TTITLE0=Night Train
TTITLE1=Mean Old World
TTITLE2=Caldonia
TTITLE3=Hamburger 0-1-8-1-2
TTITLE4=For You My Love
TTITLE5=Tin Pan Alley
TTITLE6=Take A Little Walk With Me
TTITLE7=Mean Black Spider
TTITLE8=Off The Wall
TTITLE9=Hoy Hoy
TTITLE10=Come Back Baby
TTITLE11=Signals Of Love
TTITLE12=There`ll Be A Day
TTITLE13=I`m A Country Boy
TTITLE14=Crossroads
TTITLE15=Hideway
TTITLE16=Baby Please Don`t Go
EXTD=YEAR: 1977
EXTT0=
EXTT1=
EXTT2=
EXTT3=
EXTT4=
EXTT5=
EXTT6=
EXTT7=
EXTT8=
EXTT9=
EXTT10=
EXTT11=
EXTT12=
EXTT13=
EXTT14=
EXTT15=
EXTT16=
PLAYORDER=
